<svg width="57" height="57" viewBox="0 0 57 57" fill="none" xmlns="http://www.w3.org/2000/svg">
<g clip-path="url(#clip0_1544_95031)">
<path d="M458.428 56H-0.463379V57.0719H458.428V56Z" fill="#E5F6F7"/>
<path d="M57 0H56V573H57V0Z" fill="#E5F6F7"/>
<path d="M458.712 573.713H-0.715332V-0.750977H458.712V573.713ZM-0.178868 573.177H458.176V-0.179299H-0.178868V573.177Z" fill="#E5F6F7"/>
<path d="M458.428 56.6675H-0.463379V57.2034H458.428V56.6675Z" fill="#E5F6F7"/>
<path d="M458.428 42.3042H-0.463379V42.8401H458.428V42.3042Z" fill="#E5F6F7"/>
<path d="M458.428 27.9771H-0.463379V28.513H458.428V27.9771Z" fill="#E5F6F7"/>
<path d="M458.428 13.6138H-0.463379V14.1497H458.428V13.6138Z" fill="#E5F6F7"/>
<path d="M57.1527 -0.463867H56.6162V573.464H57.1527V-0.463867Z" fill="#E5F6F7"/>
<path d="M42.8114 -0.463867H42.2749V573.464H42.8114V-0.463867Z" fill="#E5F6F7"/>
<path d="M28.4696 -0.463867H27.9331V573.464H28.4696V-0.463867Z" fill="#E5F6F7"/>
<path d="M14.1644 -0.463867H13.6279V573.464H14.1644V-0.463867Z" fill="#E5F6F7"/>
</g>
<defs>
<clipPath id="clip0_1544_95031">
<rect width="57" height="57" fill="white"/>
</clipPath>
</defs>
</svg>
