<svg viewBox="0 0 32 32" fill="none" xmlns="http://www.w3.org/2000/svg">
  <style>
    [warning] {
      animation: opacity 1s linear infinite;
    }

    @keyframes opacity {
      0% {opacity: 0}
      50% {opacity: 1}
      100% {opacity: 0}
    }
  </style>
  <path fill-rule="evenodd" clip-rule="evenodd" d="M8.43202 12.0907C5.18002 12.5347 2.66669 15.2934 2.66669 18.6667C2.66669 22.348 5.65202 25.3334 9.33335 25.3334H24C26.9454 25.3334 29.3334 22.9454 29.3334 20C29.3334 17.0547 26.9454 14.6667 24 14.6667C24 10.248 20.4187 6.66669 16 6.66669C12.484 6.66669 9.50535 8.93735 8.43202 12.0907Z" fill="none" stroke-linecap="round" stroke-linejoin="round"/>
  <g warning="">
    <path d="M16 17.12V13.38" fill="none" stroke-linecap="round" stroke-linejoin="round"/>
    <path d="M15.999 20.125C15.861 20.125 15.749 20.237 15.75 20.375C15.75 20.513 15.862 20.625 16 20.625C16.138 20.625 16.25 20.513 16.25 20.375C16.25 20.237 16.138 20.125 15.999 20.125" fill="none" stroke-linecap="round" stroke-linejoin="round"/>
  </g>
</svg>
